<!-- Exile to Exile logo: E2E in the wordmark colours, the 2 drawn over
     both E's. Built from the site's own Marcellus SC outlines; dark
     backgrounds only - the tile variant covers light ones. -->
<svg xmlns="http://www.w3.org/2000/svg" viewBox="0 0 1876 1622" role="img" aria-label="E2E"><g transform="translate(-61.1 1531.9)"><path transform="scale(1 -1)" fill="#ecd49a" d="M143 1434Q268 1434 391.5 1435.0Q515 1436 618.0 1437.5Q721 1439 794.0 1442.0Q867 1445 893 1450L844 1317Q811 1326 767 1333Q729 1339 674.5 1344.5Q620 1350 549 1350Q525 1350 491.5 1348.5Q458 1347 427 1345Q391 1343 354 1341V795Q457 796 540.0 801.0Q623 806 681 811Q749 817 801 825L770 680Q701 689 629 697Q567 704 494.0 709.5Q421 715 354 715V88Q472 88 571.0 98.0Q670 108 744 121Q830 135 901 154L872 -8Q860 -7 836.0 -6.0Q812 -5 782.5 -4.0Q753 -3 720.5 -2.5Q688 -2 659.0 -1.5Q630 -1 607.5 -0.5Q585 0 575 0H143V4Q149 25 154.5 56.0Q160 87 164.0 133.0Q168 179 170.0 242.5Q172 306 172 391V1042Q172 1127 170.0 1190.5Q168 1254 164.0 1300.5Q160 1347 154.5 1378.0Q149 1409 143 1430V1434Z"/><path transform="translate(953.8 0) scale(1 -1)" fill="#d2473c" d="M143 1434Q268 1434 391.5 1435.0Q515 1436 618.0 1437.5Q721 1439 794.0 1442.0Q867 1445 893 1450L844 1317Q811 1326 767 1333Q729 1339 674.5 1344.5Q620 1350 549 1350Q525 1350 491.5 1348.5Q458 1347 427 1345Q391 1343 354 1341V795Q457 796 540.0 801.0Q623 806 681 811Q749 817 801 825L770 680Q701 689 629 697Q567 704 494.0 709.5Q421 715 354 715V88Q472 88 571.0 98.0Q670 108 744 121Q830 135 901 154L872 -8Q860 -7 836.0 -6.0Q812 -5 782.5 -4.0Q753 -3 720.5 -2.5Q688 -2 659.0 -1.5Q630 -1 607.5 -0.5Q585 0 575 0H143V4Q149 25 154.5 56.0Q160 87 164.0 133.0Q168 179 170.0 242.5Q172 306 172 391V1042Q172 1127 170.0 1190.5Q168 1254 164.0 1300.5Q160 1347 154.5 1378.0Q149 1409 143 1430V1434Z"/><path transform="translate(457.4 0) scale(1 -1) rotate(-30 541.5 729.0) translate(541.5 729.0) scale(0.75) translate(-541.5 -729.0)" fill="#d6dae2" d="M156 20Q171 39 203.0 71.5Q235 104 277.0 148.5Q319 193 367.0 248.0Q415 303 463.0 367.0Q511 431 555.5 503.5Q600 576 634.0 655.0Q668 734 688.5 819.0Q709 904 709 993Q709 1088 686.5 1157.5Q664 1227 625.0 1272.5Q586 1318 533.5 1340.0Q481 1362 420 1362Q344 1362 282.5 1336.5Q221 1311 175.5 1277.0Q130 1243 101.5 1209.0Q73 1175 63 1157L49 1163L117 1366Q170 1390 216.5 1407.5Q263 1425 310.5 1436.0Q358 1447 408.5 1452.5Q459 1458 520 1458Q561 1458 607.0 1449.0Q653 1440 698.0 1420.0Q743 1400 783.5 1368.5Q824 1337 855.5 1291.5Q887 1246 905.5 1186.0Q924 1126 924 1049Q924 967 899.0 884.5Q874 802 833.0 722.5Q792 643 739.0 567.0Q686 491 630.0 422.0Q574 353 519.0 292.5Q464 232 420 182H805Q842 182 877.5 183.5Q913 185 943.0 188.5Q973 192 995.5 198.0Q1018 204 1030 213H1034V0H156V20Z"/></g></svg>